<svg width="32" height="33" viewBox="0 0 32 33" fill="none" xmlns="http://www.w3.org/2000/svg">
<rect y="0.00201416" width="32" height="32" rx="16" fill="url(#paint0_linear_1472_18737)"/>
<path d="M10.6168 11.202H12.7168L16.1188 21.002H13.9768L13.3188 19.056H9.95884L9.28684 21.002H7.21484L10.6168 11.202ZM12.7588 17.376L11.6388 13.694L10.5048 17.376H12.7588ZM20.6848 21.128C19.4808 21.128 18.5288 20.75 17.8288 19.994C17.1381 19.238 16.7928 18.0807 16.7928 16.522V15.402C16.7928 13.9833 17.1381 12.91 17.8288 12.182C18.5288 11.4447 19.4808 11.076 20.6848 11.076C21.2635 11.076 21.7721 11.1507 22.2108 11.3C22.6495 11.4493 23.0228 11.664 23.3308 11.944C23.6388 12.224 23.8815 12.5647 24.0588 12.966C24.2361 13.358 24.3528 13.8013 24.4088 14.296H22.4068C22.3228 13.82 22.1501 13.4513 21.8888 13.19C21.6275 12.9287 21.2261 12.798 20.6848 12.798C20.0968 12.798 19.6348 12.9987 19.2988 13.4C18.9628 13.792 18.7948 14.4593 18.7948 15.402V16.522C18.7948 17.0633 18.8368 17.5207 18.9208 17.894C19.0141 18.258 19.1401 18.552 19.2988 18.776C19.4575 19 19.6535 19.1633 19.8868 19.266C20.1201 19.3593 20.3861 19.406 20.6848 19.406C21.2355 19.406 21.6321 19.2753 21.8748 19.014C22.1268 18.7433 22.3041 18.3513 22.4068 17.838H24.4088C24.2875 18.8833 23.9235 19.6953 23.3168 20.274C22.7101 20.8433 21.8328 21.128 20.6848 21.128Z" fill="#516173"/>
<defs>
<linearGradient id="paint0_linear_1472_18737" x1="16" y1="112.402" x2="16" y2="16.0016" gradientUnits="userSpaceOnUse">
<stop stop-color="#3A9EFF"/>
<stop offset="1" stop-color="#ECF6FF"/>
</linearGradient>
</defs>
</svg>
