<svg width="25" height="24" viewBox="0 0 25 24" fill="none" xmlns="http://www.w3.org/2000/svg">
<rect x="0.00195312" y="0.000488281" width="24" height="24" rx="12" fill="#DFE3E9"/>
<path fill-rule="evenodd" clip-rule="evenodd" d="M16.7091 8.7076C17.0996 8.31707 17.0996 7.68391 16.7091 7.29338C16.3185 6.90286 15.6854 6.90286 15.2948 7.29338L12.002 10.5863L8.70906 7.29338C8.31854 6.90286 7.68537 6.90286 7.29485 7.29338C6.90432 7.68391 6.90432 8.31707 7.29485 8.7076L10.5877 12.0005L7.29485 15.2934C6.90432 15.6839 6.90432 16.3171 7.29485 16.7076C7.68537 17.0981 8.31854 17.0981 8.70906 16.7076L12.002 13.4147L15.2948 16.7076C15.6854 17.0981 16.3185 17.0981 16.7091 16.7076C17.0996 16.3171 17.0996 15.6839 16.7091 15.2934L13.4162 12.0005L16.7091 8.7076Z" fill="#354052"/>
</svg>
