<svg width="20" height="21" viewBox="0 0 20 21" fill="none" xmlns="http://www.w3.org/2000/svg">
<path d="M17.9945 10.002C17.9945 9.53143 17.6182 9.14994 17.154 9.14994L0.840587 9.14994C0.376343 9.14994 -4.11407e-08 9.53143 0 10.002C4.11407e-08 10.4726 0.376344 10.8541 0.840587 10.8541L17.154 10.8541C17.6182 10.8541 17.9945 10.4726 17.9945 10.002Z" fill="#516173"/>
<path d="M16.4815 13.9216C16.1565 14.251 15.6296 14.251 15.3047 13.9216C14.9797 13.5922 14.9797 13.0581 15.3047 12.7287L17.9945 10.002L15.3047 7.27534C14.9797 6.94593 14.9797 6.41184 15.3047 6.08242C15.6296 5.753 16.1565 5.753 16.4815 6.08242L19.7538 9.39951C20.0821 9.73227 20.0821 10.2718 19.7538 10.6045L16.4815 13.9216Z" fill="#516173"/>
</svg>
