<svg width="18" height="18" viewBox="0 0 18 18" fill="none" xmlns="http://www.w3.org/2000/svg">
<g id="Container / icon-cont-01">
<path id="Union" fill-rule="evenodd" clip-rule="evenodd" d="M11.2944 2.50314C10.7455 0.0536245 7.25455 0.0536174 6.70563 2.50314L7.68143 2.72181L6.70563 2.50314L6.67563 2.637C6.62246 2.87427 6.35013 2.98707 6.14476 2.85689L5.60939 3.70151L6.14476 2.85689L6.02889 2.78345C3.90868 1.43952 1.44021 3.90799 2.78413 6.02821L2.85758 6.14408L3.61148 5.66621L2.85758 6.14408C2.98776 6.34945 2.87495 6.62177 2.63769 6.67494L2.50382 6.70494C0.0543123 7.25386 0.0543033 10.7448 2.50383 11.2937L2.63769 11.3237L2.8508 10.3727L2.63769 11.3237C2.87496 11.3769 2.98776 11.6492 2.85758 11.8546L2.78414 11.9705C1.44021 14.0907 3.90867 16.5591 6.02889 15.2152L5.53157 14.4306L6.02889 15.2152L6.14476 15.1418C6.35013 15.0116 6.62246 15.1244 6.67563 15.3617L6.70563 15.4955L7.65621 15.2825L6.70563 15.4955C7.25455 17.945 10.7455 17.9451 11.2944 15.4955L11.3244 15.3617L10.3486 15.143L11.3244 15.3617C11.3776 15.1244 11.6499 15.0116 11.8553 15.1418L11.9711 15.2152C14.0914 16.5591 16.5598 14.0907 15.2159 11.9705L15.1425 11.8546L14.3864 12.3338L15.1425 11.8546C15.0123 11.6492 15.1251 11.3769 15.3623 11.3237L15.4962 11.2937L15.2775 10.3179L15.4962 11.2937C17.9457 10.7448 17.9457 7.25386 15.4962 6.70494L15.3624 6.67494C15.1251 6.62177 15.0123 6.34945 15.1425 6.14408L15.2159 6.02821L14.3713 5.49284L15.2159 6.02821C16.5598 3.90799 14.0914 1.43952 11.9711 2.78345L11.8553 2.85689L12.2292 3.44687L11.8553 2.85689C11.6499 2.98707 11.3776 2.87427 11.3244 2.63701L11.2944 2.50314L10.3186 2.72181L11.2944 2.50314ZM8.65723 2.94048C8.6839 2.82147 8.73423 2.76554 8.77773 2.73329C8.83018 2.69441 8.90797 2.666 9.00002 2.666C9.09207 2.666 9.16986 2.69441 9.22231 2.7333C9.26581 2.76554 9.31614 2.82147 9.34281 2.94048L9.37281 3.07434C9.72869 4.66242 11.5514 5.41742 12.926 4.54613L13.0419 4.47268C13.1449 4.40739 13.22 4.40343 13.2736 4.41139C13.3382 4.42098 13.4133 4.4559 13.4784 4.52099C13.5435 4.58608 13.5784 4.66117 13.588 4.72575C13.5959 4.77932 13.592 4.85445 13.5267 4.95746L13.4532 5.07333L14.2763 5.59503L13.4532 5.07333C12.5819 6.44791 13.3369 8.27067 14.925 8.62654L15.0589 8.65654C15.1779 8.68321 15.2338 8.73354 15.2661 8.77704C15.3049 8.82949 15.3334 8.90728 15.3334 8.99933C15.3334 9.09138 15.3049 9.16917 15.2661 9.22162C15.2338 9.26512 15.1779 9.31546 15.0589 9.34213L14.925 9.37212L15.1115 10.2044L14.925 9.37212C13.3369 9.728 12.5819 11.5508 13.4532 12.9253L13.5267 13.0412L14.3713 12.5058L13.5267 13.0412C13.592 13.1442 13.5959 13.2194 13.588 13.2729C13.5784 13.3375 13.5435 13.4126 13.4784 13.4777C13.4133 13.5428 13.3382 13.5777 13.2736 13.5873C13.22 13.5952 13.1449 13.5913 13.0419 13.526L12.926 13.4525C11.5514 12.5812 9.72869 13.3363 9.37281 14.9243L9.34281 15.0582L10.3186 15.2769L9.34281 15.0582C9.31614 15.1772 9.26581 15.2331 9.22231 15.2654C9.16986 15.3043 9.09207 15.3327 9.00002 15.3327C8.90797 15.3327 8.83018 15.3043 8.77773 15.2654C8.73423 15.2331 8.6839 15.1772 8.65723 15.0582L8.62723 14.9243C8.27135 13.3362 6.4486 12.5812 5.07402 13.4525L4.95815 13.526C4.85514 13.5913 4.78 13.5952 4.72644 13.5873C4.66186 13.5777 4.58677 13.5428 4.52168 13.4777C4.45659 13.4126 4.42167 13.3375 4.41208 13.2729C4.40412 13.2193 4.40807 13.1442 4.47337 13.0412L4.54682 12.9253C5.41811 11.5507 4.6631 9.728 3.07503 9.37212L2.94116 9.34213C2.82215 9.31546 2.76623 9.26512 2.73398 9.22162C2.6951 9.16917 2.66669 9.09138 2.66669 8.99933C2.66669 8.90728 2.6951 8.82949 2.73398 8.77704C2.76623 8.73354 2.82216 8.68321 2.94117 8.65654L3.07503 8.62654C4.6631 8.27066 5.41811 6.44791 4.54681 5.07333L4.47337 4.95746C4.40807 4.85445 4.40412 4.77932 4.41208 4.72575C4.42167 4.66117 4.45658 4.58608 4.52167 4.52099C4.58676 4.4559 4.66186 4.42098 4.72644 4.41139C4.78 4.40343 4.85514 4.40739 4.95815 4.47268L5.49352 3.62807L4.95815 4.47268L5.07402 4.54613C6.4486 5.41742 8.27135 4.66241 8.62723 3.07434L8.65723 2.94048ZM8.00002 9C8.00002 8.44772 8.44774 8 9.00002 8C9.55231 8 10 8.44772 10 9C10 9.55229 9.55231 10 9.00002 10C8.44774 10 8.00002 9.55229 8.00002 9ZM9.00002 6C7.34317 6 6.00002 7.34315 6.00002 9C6.00002 10.6569 7.34317 12 9.00002 12C10.6569 12 12 10.6569 12 9C12 7.34315 10.6569 6 9.00002 6Z" fill="#7F8FA4"/>
</g>
</svg>
