<svg width="13" height="17" viewBox="0 0 13 17" fill="none" xmlns="http://www.w3.org/2000/svg">
<path d="M0.0433127 0.199999H6.33131C8.21931 0.199999 9.68331 0.583999 10.7233 1.352C11.7793 2.12 12.3073 3.232 12.3073 4.688C12.3073 5.52 12.0993 6.232 11.6833 6.824C11.2833 7.416 10.7713 7.888 10.1473 8.24C10.9793 8.56 11.6273 9.032 12.0913 9.656C12.5713 10.28 12.8113 11.136 12.8113 12.224C12.8113 12.896 12.6913 13.528 12.4513 14.12C12.2113 14.696 11.8353 15.2 11.3233 15.632C10.8113 16.048 10.1553 16.384 9.35531 16.64C8.57131 16.88 7.61931 17 6.49931 17H0.0433127V0.199999ZM6.33131 14.144C7.45131 14.144 8.23531 13.952 8.68331 13.568C9.14731 13.184 9.37931 12.64 9.37931 11.936C9.37931 11.2 9.15531 10.648 8.70731 10.28C8.27531 9.896 7.48331 9.704 6.33131 9.704H3.47531V14.144H6.33131ZM6.33131 7.016C7.21131 7.016 7.85131 6.84 8.25131 6.488C8.66731 6.12 8.87531 5.648 8.87531 5.072C8.87531 4.448 8.67531 3.96 8.27531 3.608C7.87531 3.24 7.22731 3.056 6.33131 3.056H3.47531V7.016H6.33131Z" fill="#516173"/>
</svg>
